<?xml version="1.0" standalone="no"?>
<!DOCTYPE svg PUBLIC "-//W3C//DTD SVG 20010904//EN"
 "http://www.w3.org/TR/2001/REC-SVG-20010904/DTD/svg10.dtd">
<svg version="1.0" xmlns="http://www.w3.org/2000/svg"
 width="150" viewBox="0 0 900.000000 210.000000"
 preserveAspectRatio="xMidYMid meet">
<metadata>
Created by potrace 1.10, written by Peter Selinger 2001-2011
</metadata>
<g transform="translate(0.000000,210.000000) scale(0.100000,-0.100000)"
fill="#5f5e5e" stroke="none">
<path d="M6700 2086 c0 -16 19 -25 38 -19 22 8 13 33 -13 33 -15 0 -25 -6 -25
-14z"/>
<path d="M6790 2086 c0 -7 7 -19 16 -27 13 -10 17 -10 25 2 15 25 10 39 -16
39 -15 0 -25 -6 -25 -14z"/>
<path d="M6862 2088 c4 -10 99 -14 421 -16 367 -2 417 0 417 13 0 13 -52 15
-421 15 -332 0 -420 -3 -417 -12z"/>
<path d="M8630 2086 c0 -16 27 -29 41 -20 19 11 9 34 -16 34 -15 0 -25 -6 -25
-14z"/>
<path d="M8745 2090 c-6 -10 6 -18 35 -21 29 -3 40 1 40 16 0 17 -65 22 -75 5z"/>
<path d="M1845 2049 c-4 -6 -4 -13 -1 -16 8 -8 36 5 36 17 0 13 -27 13 -35 -1z"/>
<path d="M6543 2048 c2 -7 12 -13 22 -13 10 0 20 6 23 13 2 7 -6 12 -23 12
-17 0 -25 -5 -22 -12z"/>
<path d="M8960 1954 c0 -13 21 -44 30 -44 6 0 10 11 10 25 0 18 -5 25 -20 25
-11 0 -20 -3 -20 -6z"/>
<path d="M6620 1926 c0 -8 6 -21 14 -28 8 -8 25 -37 39 -64 14 -27 37 -60 52
-74 l26 -25 -11 30 c-24 65 -44 105 -52 105 -5 0 -16 16 -24 35 -14 35 -44 48
-44 21z"/>
<path d="M8807 1933 c-4 -3 -7 -12 -7 -20 0 -7 -18 -39 -40 -70 -22 -32 -40
-62 -40 -67 0 -4 -11 -21 -25 -38 -14 -16 -25 -39 -25 -50 0 -11 -13 -37 -29
-57 -28 -36 -37 -52 -86 -148 -14 -28 -29 -53 -33 -55 -10 -4 -42 -64 -42 -79
0 -6 -16 -31 -35 -55 -19 -23 -35 -49 -35 -56 0 -8 -11 -29 -25 -48 -14 -19
-25 -37 -25 -41 0 -3 -31 -58 -70 -120 -38 -63 -79 -135 -91 -161 -12 -27 -25
-48 -29 -48 -4 0 -17 -23 -30 -51 -12 -29 -33 -63 -46 -78 -13 -14 -24 -33
-24 -41 0 -9 -9 -23 -20 -33 -11 -9 -20 -23 -20 -30 0 -8 -11 -34 -25 -58 -13
-24 -29 -55 -35 -68 -6 -13 -22 -37 -35 -53 -14 -16 -25 -38 -25 -48 0 -9 -7
-23 -15 -30 -25 -21 -64 -99 -53 -106 11 -7 54 40 64 71 4 11 17 34 30 51 13
17 24 34 24 38 0 4 9 19 20 33 11 14 20 32 20 40 0 8 16 39 35 69 19 30 35 63
35 73 0 10 7 22 15 25 9 3 22 20 30 38 7 18 25 48 39 67 14 19 26 40 26 47 0
7 11 25 24 41 23 27 66 113 66 131 0 5 7 15 15 22 18 15 75 116 75 133 0 8 9
22 20 32 22 20 100 150 100 168 1 7 14 28 30 47 17 19 30 40 30 48 0 7 11 28
26 47 14 18 43 70 65 116 22 45 51 95 64 111 14 16 25 36 25 44 0 9 11 30 25
48 14 18 25 36 25 40 0 3 16 29 36 57 19 28 33 57 30 65 -6 15 -18 18 -29 7z"/>
<path d="M1728 1831 c-9 -11 -25 -40 -37 -65 -11 -26 -27 -53 -36 -62 -8 -8
-15 -24 -15 -35 0 -10 -4 -19 -9 -19 -5 0 -13 -10 -17 -22 -8 -26 -70 -124
-84 -133 -5 -3 -10 -17 -10 -30 0 -12 -6 -25 -14 -28 -7 -3 -28 -36 -47 -74
-18 -37 -36 -69 -41 -71 -12 -5 -10 -42 2 -42 6 0 10 7 10 15 0 16 25 60 47
83 7 7 13 18 13 24 0 5 12 29 28 52 15 22 42 71 60 109 18 37 37 67 42 67 4 0
13 12 19 28 17 43 63 116 77 125 8 4 14 16 14 25 0 9 7 26 15 36 28 36 12 51
-17 17z"/>
<path d="M6377 1768 c-10 -11 -17 -27 -15 -36 3 -12 9 -8 22 16 21 40 18 46
-7 20z"/>
<path d="M2554 1714 c-60 -37 -131 -78 -157 -93 -75 -41 -84 -46 -98 -58 -8
-6 -45 -27 -84 -48 -38 -21 -76 -44 -84 -51 -12 -11 -14 -70 -14 -334 l1 -322
82 -49 c44 -27 83 -49 86 -49 2 0 23 -12 47 -27 23 -15 62 -38 87 -52 25 -13
72 -41 104 -63 96 -64 91 -78 91 272 0 168 -3 313 -8 323 -4 9 -31 29 -60 43
-29 14 -66 37 -84 50 -17 13 -36 24 -41 24 -5 0 -15 7 -22 16 -8 8 -25 14 -39
12 -25 -3 -26 -6 -23 -53 4 -60 17 -75 103 -119 l64 -33 3 -196 c2 -143 -1
-197 -9 -197 -6 0 -37 17 -68 38 -31 21 -89 57 -128 81 -40 23 -73 47 -73 54
0 7 -1 124 -1 261 -1 230 1 250 17 260 47 28 133 77 169 97 65 35 209 123 223
136 19 18 45 16 73 -5 13 -10 31 -22 39 -25 8 -4 22 -11 30 -17 8 -5 62 -37
120 -70 58 -33 112 -65 120 -70 8 -6 22 -13 30 -17 8 -3 27 -15 43 -25 l27
-19 0 -252 c0 -139 -4 -257 -8 -263 -4 -7 -25 -22 -47 -34 -83 -45 -134 -76
-152 -91 -27 -24 -64 -42 -71 -34 -4 4 -5 91 -4 193 4 196 10 222 52 222 10 0
23 7 30 15 7 8 18 15 25 15 7 0 24 9 39 21 24 19 27 27 24 73 -3 44 -6 51 -25
54 -14 2 -40 -10 -66 -30 -24 -18 -73 -49 -110 -68 -37 -19 -69 -40 -71 -46
-3 -7 -6 -151 -7 -320 l-2 -309 21 -3 c13 -2 38 9 60 26 20 16 44 32 52 35 8
4 29 16 45 27 17 11 37 23 45 27 8 4 58 32 111 62 52 31 112 65 132 75 l37 19
-2 331 -3 331 -30 15 c-26 13 -109 61 -221 127 -17 10 -62 35 -100 57 -38 21
-87 50 -109 65 -49 32 -85 51 -94 51 -4 0 -57 -30 -117 -66z"/>
<path d="M4277 1584 c-117 -36 -189 -179 -144 -287 61 -143 249 -189 360 -88
127 116 81 326 -83 375 -64 19 -71 19 -133 0z m134 -97 c47 -31 61 -62 56
-125 -3 -44 -9 -59 -36 -85 -28 -29 -37 -32 -87 -31 -52 0 -59 3 -90 37 -29
32 -34 44 -34 87 0 111 104 175 191 117z"/>
<path d="M7200 1588 c-56 -13 -115 -58 -140 -109 -27 -52 -27 -156 -1 -207 69
-135 256 -158 363 -45 104 109 57 298 -87 352 -61 23 -69 24 -135 9z m110 -93
c49 -25 70 -62 70 -121 0 -42 -5 -59 -26 -84 -57 -67 -140 -67 -196 1 -23 27
-28 43 -28 84 0 57 16 87 64 116 37 23 77 24 116 4z"/>
<path d="M3742 1576 c-4 -6 -5 -103 -2 -216 l5 -205 39 -3 c24 -2 42 2 47 10
5 7 6 45 3 84 -8 91 -1 97 111 83 47 -6 82 -6 87 -1 5 5 8 25 6 43 l-3 34
-100 0 -100 0 0 50 0 50 115 0 115 0 0 40 0 40 -158 1 c-103 1 -160 -3 -165
-10z"/>
<path d="M4644 1576 c-3 -8 -4 -74 -1 -148 5 -158 18 -201 73 -240 34 -24 49
-27 113 -28 92 0 130 20 163 88 21 43 23 61 23 192 l0 145 -50 0 -50 0 4 -141
c2 -89 -1 -148 -7 -161 -27 -50 -126 -54 -157 -7 -13 21 -16 49 -14 158 1 73
-1 138 -5 144 -11 17 -85 15 -92 -2z"/>
<path d="M5118 1583 c-2 -5 -3 -102 -3 -218 l0 -210 27 -3 c15 -2 36 2 48 8
19 10 21 17 15 83 -4 40 -11 92 -16 116 -18 84 26 81 83 -7 100 -152 129 -187
160 -195 18 -5 35 -4 41 2 6 6 10 95 11 218 l1 208 -49 3 -49 3 7 -118 c4 -70
2 -124 -3 -133 -12 -18 -4 -28 -100 115 -45 66 -89 123 -99 127 -23 9 -70 10
-74 1z"/>
<path d="M5594 1579 c-7 -11 -6 -410 1 -417 2 -3 49 -4 105 -3 120 2 168 19
222 79 48 53 66 132 46 199 -14 47 -63 105 -112 130 -36 19 -251 29 -262 12z
m203 -82 c53 -20 78 -62 78 -131 -1 -54 -3 -61 -33 -86 -35 -29 -136 -50 -155
-31 -10 10 -13 234 -2 250 8 14 71 13 112 -2z"/>
<path d="M6163 1573 c-30 -88 -120 -305 -144 -344 -33 -57 -35 -65 -13 -73 54
-21 104 9 104 61 0 31 28 43 105 43 79 0 100 -10 108 -48 9 -44 33 -64 76 -60
23 2 37 9 39 18 2 14 -20 71 -47 120 -4 8 -15 31 -23 50 -9 19 -29 64 -45 100
-17 36 -33 78 -37 95 -11 45 -24 55 -73 55 -33 0 -45 -4 -50 -17z m98 -176
c15 -56 7 -67 -45 -67 -57 0 -63 16 -30 86 25 53 27 55 45 38 11 -9 24 -35 30
-57z"/>
<path d="M6420 1576 c-15 -15 -12 -42 8 -66 17 -21 21 -21 60 -10 71 22 74 15
70 -179 l-3 -166 45 0 45 0 1 168 c0 101 4 171 10 177 7 7 25 8 53 1 33 -7 45
-6 56 6 18 18 20 59 3 70 -18 11 -337 10 -348 -1z"/>
<path d="M6865 1584 c-6 -2 -10 -84 -9 -217 l0 -212 47 -3 c26 -2 47 1 47 5 4
106 0 415 -5 422 -6 11 -59 14 -80 5z"/>
<path d="M7562 1578 c-7 -9 -7 -33 0 -73 8 -50 6 -166 -5 -315 -2 -29 35 -47
75 -37 35 9 38 28 22 143 -8 54 -12 105 -9 112 10 27 37 9 80 -55 107 -159
130 -187 164 -196 19 -4 37 -5 42 0 6 6 14 348 10 421 -1 9 -15 12 -48 10 -55
-3 -52 10 -39 -155 7 -86 6 -93 -11 -93 -11 0 -32 21 -53 53 -18 28 -58 85
-87 125 -51 68 -56 72 -92 72 -21 0 -43 -6 -49 -12z"/>
<path d="M0 1241 c0 -17 2 -31 4 -31 8 0 13 51 5 56 -5 3 -9 -9 -9 -25z"/>
<path d="M1377 1223 c-10 -10 -8 -53 2 -53 10 0 21 24 21 46 0 15 -12 19 -23
7z"/>
<path d="M55 1133 c8 -16 19 -35 24 -43 5 -8 19 -36 31 -62 12 -26 30 -58 41
-71 10 -14 28 -45 39 -68 11 -24 36 -71 55 -104 19 -33 41 -73 49 -90 8 -16
23 -41 34 -55 10 -14 36 -56 57 -95 20 -38 43 -74 51 -80 7 -5 20 -30 29 -54
8 -25 27 -59 40 -77 14 -18 25 -37 25 -42 0 -5 13 -28 30 -50 16 -23 30 -47
30 -54 0 -7 14 -29 30 -48 24 -29 29 -32 29 -15 0 11 -11 38 -24 60 -13 22
-36 62 -51 90 -14 27 -46 79 -70 116 -24 36 -44 71 -44 76 0 14 -59 124 -77
145 -17 19 -38 56 -82 146 -17 34 -40 68 -51 74 -11 7 -20 22 -20 33 0 11 -14
40 -30 65 -16 25 -30 50 -30 57 0 6 -18 34 -41 63 -22 28 -45 65 -51 81 -5 16
-16 29 -24 29 -12 0 -12 -4 1 -27z"/>
<path d="M1335 1137 c-10 -15 -16 -30 -13 -32 8 -9 40 33 36 47 -3 8 -11 2
-23 -15z"/>
<path d="M1254 1006 c-8 -22 3 -33 18 -18 9 9 9 15 0 24 -9 9 -13 7 -18 -6z"/>
<path d="M7160 1001 c0 -5 7 -14 15 -21 8 -7 15 -18 15 -24 1 -6 9 -29 20 -51
11 -22 19 -46 20 -52 0 -7 4 -13 9 -13 5 0 14 -15 21 -34 6 -18 20 -42 30 -51
11 -10 20 -24 20 -31 0 -15 51 -94 61 -94 20 0 12 31 -23 86 -21 34 -38 66
-38 71 0 6 -11 22 -25 37 -14 15 -25 33 -25 40 0 8 -7 19 -16 26 -8 8 -22 27
-30 44 -30 61 -39 76 -46 76 -5 0 -8 -4 -8 -9z"/>
<path d="M6335 960 c-19 -21 -13 -42 7 -22 21 21 88 15 109 -10 23 -29 27
-108 4 -108 -11 0 -15 12 -15 50 0 55 6 50 -77 54 -15 1 -17 -7 -15 -49 4 -57
13 -72 31 -51 11 14 16 14 37 -1 13 -8 24 -24 24 -34 0 -24 22 -24 43 -1 12
13 17 36 17 73 -1 46 -5 59 -30 87 -25 27 -37 32 -73 32 -31 0 -49 -6 -62 -20z"/>
<path d="M3739 958 c0 -2 -3 -85 -6 -186 l-4 -183 33 3 33 3 -3 85 c-1 47 -5
100 -8 118 -9 56 26 40 71 -33 41 -66 67 -80 86 -45 37 71 83 138 92 133 6 -3
7 -52 2 -134 l-7 -129 31 0 30 0 -2 180 c-2 143 -5 181 -16 185 -27 10 -46 -6
-86 -71 -64 -105 -69 -111 -90 -94 -10 8 -23 26 -29 40 -14 32 -68 113 -81
122 -9 7 -44 11 -46 6z"/>
<path d="M4181 946 c-8 -9 -11 -66 -9 -182 l3 -169 120 -6 c66 -3 128 -1 138
4 17 8 17 11 4 30 -14 20 -22 22 -111 19 -93 -2 -96 -2 -102 22 -3 13 -4 37
-2 52 l3 29 85 0 c92 0 110 6 110 35 0 17 -9 20 -97 22 l-98 3 -3 29 c-2 15
-1 39 3 53 6 24 7 25 100 21 98 -3 123 5 112 36 -9 22 -238 24 -256 2z"/>
<path d="M4522 952 c-9 -7 -12 -50 -10 -183 l3 -174 84 -3 c106 -4 158 17 198
80 22 35 27 55 27 103 0 119 -77 185 -215 185 -41 0 -80 -4 -87 -8z m157 -57
c51 -18 66 -32 86 -82 15 -37 14 -43 -3 -84 -11 -24 -26 -50 -35 -57 -23 -20
-136 -35 -153 -21 -18 15 -20 229 -2 247 16 16 57 15 107 -3z"/>
<path d="M4915 951 c-6 -6 -9 -84 -7 -185 l3 -176 29 0 c17 0 30 5 30 10 4 85
0 342 -5 350 -8 13 -38 13 -50 1z"/>
<path d="M5111 930 c-48 -35 -81 -100 -81 -158 0 -36 26 -101 52 -133 23 -29
91 -59 132 -59 67 0 160 59 141 90 -8 12 -55 13 -55 2 0 -5 -18 -16 -40 -25
-36 -14 -45 -14 -83 -1 -54 19 -80 55 -84 118 -5 61 10 92 56 123 42 29 78 29
129 2 47 -25 75 -20 70 13 -5 34 -61 58 -134 58 -52 0 -67 -4 -103 -30z"/>
<path d="M5419 948 c0 -13 0 -336 1 -350 0 -5 14 -8 30 -8 l30 0 -2 183 -3
182 -27 3 c-18 2 -28 -1 -29 -10z"/>
<path d="M5570 953 c0 -5 -1 -86 -3 -180 -2 -95 1 -177 6 -182 5 -5 18 -6 29
-3 19 5 20 10 13 133 -4 77 -4 129 2 129 21 0 54 -40 182 -225 15 -22 33 -35
46 -35 22 0 22 3 28 173 5 183 1 202 -40 191 -21 -6 -22 -9 -16 -125 6 -128 1
-141 -36 -91 -12 15 -40 52 -64 82 -23 30 -53 71 -67 90 -13 19 -29 38 -35 42
-13 10 -45 10 -45 1z"/>
<path d="M5978 953 c-16 -4 -18 -21 -18 -183 l0 -178 128 -4 c141 -6 164 1
142 42 -12 22 -16 22 -102 16 -102 -8 -118 -1 -118 48 0 55 9 59 98 51 76 -7
81 -6 92 15 19 35 -1 43 -97 44 l-88 1 -3 38 c-5 61 7 68 115 65 74 -2 96 0
103 12 19 31 -8 40 -124 39 -61 -1 -119 -3 -128 -6z"/>
<path d="M1200 910 c0 -11 5 -20 10 -20 6 0 10 9 10 20 0 11 -4 20 -10 20 -5
0 -10 -9 -10 -20z"/>
<path d="M6270 866 c0 -14 5 -26 10 -26 6 0 10 -7 10 -15 0 -17 35 -55 50 -55
6 0 10 -7 10 -16 0 -11 9 -14 37 -12 48 4 57 28 11 28 -27 0 -41 8 -64 35 -16
19 -31 45 -34 57 -8 32 -30 35 -30 4z"/>
<path d="M1130 787 c-14 -29 -7 -48 11 -30 6 6 9 21 7 34 l-4 24 -14 -28z"/>
<path d="M7390 595 c0 -14 9 -34 20 -45 11 -11 20 -29 20 -39 0 -11 6 -26 13
-33 19 -21 64 -90 78 -120 7 -16 16 -28 20 -28 4 0 10 -11 13 -25 3 -13 17
-35 31 -49 14 -14 25 -32 25 -40 0 -17 50 -96 62 -96 12 0 10 7 -17 58 -14 26
-25 52 -25 58 0 7 -7 14 -15 18 -8 3 -15 14 -15 24 0 10 -11 33 -25 52 -14 19
-25 39 -25 45 0 7 -9 20 -20 30 -11 10 -20 26 -20 36 0 10 -8 23 -17 28 -20
11 -59 82 -68 124 -7 34 -35 36 -35 2z"/>
<path d="M967 503 c-12 -11 -8 -23 8 -23 8 0 15 7 15 15 0 16 -12 20 -23 8z"/>
<path d="M926 433 c-4 -10 -17 -36 -30 -58 -28 -46 -35 -82 -10 -50 9 11 25
40 36 65 12 25 23 48 25 53 2 4 0 7 -5 7 -5 0 -13 -8 -16 -17z"/>
<path d="M5605 409 c-4 -11 -4 -23 0 -27 7 -7 25 17 25 36 0 20 -18 14 -25 -9z"/>
<path d="M5562 341 c-8 -5 -12 -19 -10 -32 l3 -24 13 23 c16 28 12 45 -6 33z"/>
<path d="M798 203 c-20 -23 -32 -63 -19 -63 11 0 46 68 39 75 -3 3 -12 -3 -20
-12z"/>
<path d="M5465 189 c-10 -15 3 -25 16 -12 7 7 7 13 1 17 -6 3 -14 1 -17 -5z"/>
<path d="M7800 159 c-13 -24 -4 -41 10 -19 10 16 13 40 5 40 -2 0 -9 -9 -15
-21z"/>
<path d="M685 41 c-7 -12 12 -24 25 -16 11 7 4 25 -10 25 -5 0 -11 -4 -15 -9z"/>
<path d="M5394 36 c-8 -22 3 -33 18 -18 9 9 9 15 0 24 -9 9 -13 7 -18 -6z"/>
<path d="M3037 24 c-13 -13 -7 -24 14 -24 11 0 19 5 17 12 -5 14 -22 21 -31
12z"/>
</g>
</svg>
