<?xml version="1.0" standalone="no"?>
<!DOCTYPE svg PUBLIC "-//W3C//DTD SVG 20010904//EN"
 "http://www.w3.org/TR/2001/REC-SVG-20010904/DTD/svg10.dtd">
<svg version="1.0" xmlns="http://www.w3.org/2000/svg"
 width="150" viewBox="0 0 200.000000 200.000000"
 preserveAspectRatio="xMidYMid meet">
<metadata>
Created by potrace 1.10, written by Peter Selinger 2001-2011
</metadata>
<g transform="translate(0.000000,200.000000) scale(0.100000,-0.100000)"
fill="#1c7eac" stroke="none">
<path d="M371 1286 c-80 -93 -169 -196 -198 -229 l-52 -60 62 -72 c34 -40 123
-142 197 -228 l135 -156 491 -1 c471 0 492 1 505 19 11 15 293 341 360 416 18
20 14 25 -179 248 l-197 228 -489 2 -489 2 -146 -169z m1278 -84 l179 -209
-180 -206 -180 -207 -463 0 -462 0 -177 204 c-98 113 -177 208 -176 213 0 4
80 99 176 211 l176 202 463 0 464 0 180 -208z"/>
<path d="M500 1215 c-1 0 -2 -84 -3 -188 l-2 -187 28 0 27 0 0 85 c0 83 1 85
24 85 41 0 54 -29 55 -122 1 -46 2 -48 31 -48 l30 0 -5 58 c-10 96 -15 120
-27 124 -8 3 -6 12 5 28 23 33 22 102 -2 131 -16 20 -31 25 -90 29 -39 3 -71
5 -71 5z m46 -38 c-9 -7 -18 -22 -19 -34 0 -12 -4 -20 -7 -18 -4 3 -5 49 -1
63 1 1 11 2 23 2 20 0 20 -1 4 -13z m71 -34 c16 -20 16 -24 3 -57 -7 -20 -16
-26 -40 -26 -30 0 -30 0 -30 55 0 55 0 55 27 50 16 -2 34 -12 40 -22z m-84
-87 c15 -22 15 -26 1 -37 -8 -7 -14 -8 -13 -3 1 5 0 11 -1 14 -3 8 -7 50 -4
50 1 0 9 -11 17 -24z m98 -10 c-7 -8 -8 -17 -3 -20 9 -5 24 -46 17 -46 -2 0
-10 13 -18 28 -10 20 -11 33 -3 45 6 9 12 14 15 12 2 -3 -2 -11 -8 -19z"/>
<path d="M1168 1030 l-3 -190 30 0 30 0 0 106 c0 89 3 109 17 117 12 8 21 7
32 -2 13 -11 16 -35 16 -117 l0 -104 30 0 30 0 0 114 c0 95 -3 117 -18 136
-19 23 -62 30 -94 16 -16 -7 -18 -2 -18 53 0 58 -1 61 -25 61 l-24 0 -3 -190z
m43 63 c10 -11 -4 -53 -16 -53 -3 0 -4 33 -3 73 1 45 3 57 5 32 3 -22 9 -45
14 -52z m109 -48 c0 -5 -5 -3 -10 5 -5 8 -10 20 -10 25 0 6 5 3 10 -5 5 -8 10
-19 10 -25z m-123 -107 c-2 -18 -4 -4 -4 32 0 36 2 50 4 33 2 -18 2 -48 0 -65z
m0 -70 c-3 -8 -6 -5 -6 6 -1 11 2 17 5 13 3 -3 4 -12 1 -19z"/>
<path d="M774 1106 c-38 -17 -54 -57 -54 -133 0 -76 20 -118 63 -132 40 -13
72 -4 102 29 17 18 20 36 20 106 0 76 -2 86 -25 108 -32 32 -67 39 -106 22z
m65 -50 c19 -22 10 -156 -11 -169 -12 -8 -21 -7 -32 2 -20 17 -23 150 -4 169
16 16 33 15 47 -2z m38 -103 c-2 -16 -4 -5 -4 22 0 28 2 40 4 28 2 -13 2 -35
0 -50z"/>
<path d="M1004 1110 c-41 -16 -54 -49 -54 -136 0 -66 4 -86 20 -107 39 -50
116 -43 145 12 23 46 20 61 -14 61 -23 0 -30 -5 -33 -21 -2 -12 -11 -27 -21
-33 -29 -18 -47 17 -47 89 0 72 18 107 47 89 10 -6 19 -21 21 -33 3 -16 10
-21 33 -21 19 0 29 5 29 15 0 29 -28 71 -55 83 -30 14 -42 14 -71 2z"/>
<path d="M1441 1106 c-37 -20 -50 -55 -51 -129 0 -80 17 -119 58 -136 54 -22
106 6 118 65 5 28 4 30 -23 29 -20 -1 -29 -7 -31 -22 -6 -40 -55 -39 -66 0
-12 45 -9 47 59 47 l65 0 0 40 c0 52 -21 93 -55 108 -32 15 -44 15 -74 -2z
m69 -62 c6 -14 8 -29 6 -33 -5 -7 -76 -3 -76 4 0 2 4 15 10 29 13 35 47 35 60
0z m37 -34 c-1 -11 -5 -20 -9 -20 -10 0 -10 4 -2 24 8 22 13 20 11 -4z m-108
-14 c9 -10 8 -15 -4 -20 -10 -4 -15 1 -15 14 0 24 4 25 19 6z"/>
</g>
</svg>
