<svg xmlns="http://www.w3.org/2000/svg" xmlns:xlink="http://www.w3.org/1999/xlink" width="30" height="34" viewBox="0 0 30 34"><defs><path id="wakya" d="M624 93.19v29.75c0 .58-.48 1.06-1.07 1.06h-27.86c-.59 0-1.07-.48-1.07-1.06V93.19c0-.59.48-1.07 1.07-1.07h7.5v-1.06c0-.58.48-1.06 1.07-1.06h10.72c.59 0 1.07.48 1.07 1.06v1.06h7.5c.6 0 1.07.48 1.07 1.07zm-19.29 1.06h8.58v-2.13h-8.58zm-4.28 23.37h17.14V94.25h-2.14v1.06c0 .59-.48 1.06-1.07 1.06h-10.72c-.59 0-1.07-.47-1.07-1.06v-1.06h-2.14zm21.43-23.37h-2.15v24.44c0 .58-.47 1.06-1.07 1.06h-19.28c-.6 0-1.07-.48-1.07-1.06V94.25h-2.15v27.62h25.72zm-9.65 7.44v2.12h-2.14v2.13h-2.14v-2.13h-2.14v-2.12h2.14v-2.13h2.14v2.13zm-9.64 7.43h12.86v2.13h-12.86zm0 4.25h12.86v2.13h-12.86z"/></defs><g><g transform="translate(-594 -90)"><use xlink:href="#wakya"/><use fill="#464646" xlink:href="#wakya"/></g></g></svg>