<svg xmlns="http://www.w3.org/2000/svg" xmlns:xlink="http://www.w3.org/1999/xlink" width="31" height="33" viewBox="0 0 31 33"><defs><path id="ps6ia" d="M624.92 711.64c.1.42.05.87-.16 1.25l-3.16 5.72a1.6 1.6 0 0 1-1.37.82c-.28 0-.55-.07-.8-.22l-5.2-3.14v6.28c0 .91-.7 1.65-1.58 1.65h-6.33c-.87 0-1.58-.74-1.58-1.65v-6.28l-5.21 3.14a1.53 1.53 0 0 1-1.2.17 1.6 1.6 0 0 1-.96-.77l-3.17-5.72a1.71 1.71 0 0 1-.15-1.25c.1-.42.37-.78.73-1l5.21-3.14-5.2-3.14a1.65 1.65 0 0 1-.74-1c-.11-.42-.05-.87.15-1.25l3.17-5.72a1.6 1.6 0 0 1 1.37-.82c.27 0 .55.07.79.22l5.2 3.14v-6.28c0-.91.72-1.65 1.6-1.65h6.32c.87 0 1.58.74 1.58 1.65v6.28l5.2-3.14a1.53 1.53 0 0 1 1.2-.17c.41.12.76.4.97.77l3.16 5.72c.21.38.27.83.16 1.25-.1.42-.37.78-.74 1l-5.2 3.14 5.2 3.14c.37.22.63.58.74 1zm-1.53.43l-7.58-4.57 7.58-4.57-3.16-5.71-7.58 4.56v-9.13h-6.33v9.13l-7.58-4.56-3.17 5.71 7.59 4.57-7.59 4.57 3.17 5.71 7.58-4.56v9.13h6.33v-9.13l7.58 4.56z"/></defs><g><g transform="translate(-594 -691)"><use xlink:href="#ps6ia"/><use fill="#43afb3" xlink:href="#ps6ia"/></g></g></svg>