<svg xmlns="http://www.w3.org/2000/svg" xmlns:xlink="http://www.w3.org/1999/xlink" width="22" height="26" viewBox="0 0 22 26"><defs><path id="nsw7a" d="M269.82 460.25a1.43 1.43 0 0 1-1.25.75h-14.45a2.14 2.14 0 0 1-2.12-2.16v-12.23c0-.87.51-1.62 1.24-1.96v-5.13c0-.84.67-1.52 1.5-1.52h12.68c.83 0 1.5.68 1.5 1.52v17.92l.9 1.35.02.04c.23.45.22.98-.02 1.42zm-14.91-15.8h4.62c.85 0 1.3.75 1.49 1.07l.02.03 6.21 9.38v-15.24h-12.34zm13.24 14.86l-.75-1.14-7.79-11.74-.02-.04c-.07-.13-.13-.2-.16-.25h-5.3a.47.47 0 0 0-.47.47v12.23c0 .25.21.47.46.47zm-7.52-6.72c0 .46-.37.84-.83.84h-1.09v1.1c0 .47-.37.85-.83.85a.84.84 0 0 1-.83-.85v-1.1h-1.08a.84.84 0 0 1-.84-.84c0-.47.38-.85.84-.85h1.08v-1.1c0-.47.37-.85.83-.85.46 0 .83.38.83.85v1.1h1.09c.46 0 .83.38.83.85zm5.5-10.6c0 .48-.36.86-.82.86h-8.44a.84.84 0 0 1-.83-.85c0-.47.37-.85.83-.85h8.44c.46 0 .83.38.83.85zm0 3.34c0 .46-.36.84-.82.84h-2.46a.84.84 0 0 1-.83-.84c0-.47.37-.85.83-.85h2.46c.46 0 .83.38.83.85z"/></defs><g><g transform="translate(-250 -436)"><use xlink:href="#nsw7a"/></g></g></svg>