<svg xmlns="http://www.w3.org/2000/svg" xmlns:xlink="http://www.w3.org/1999/xlink" width="32" height="33" viewBox="0 0 32 33"><defs><path id="393ea" d="M624.99 377.35v.39c0 1.8-1.45 3.26-3.23 3.26h-25.54a3.25 3.25 0 0 1-3.23-3.26v-18.95c0-1.8 1.45-3.26 3.23-3.26h5.12v-3.34a4.18 4.18 0 0 1 4.16-4.19h6.98a4.18 4.18 0 0 1 4.15 4.19v3.34h5.13a3.25 3.25 0 0 1 3.23 3.26v18.56zm-22.22-25.16v3.34h1.42v-3.34c0-.73.59-1.32 1.3-1.32h6.99c.72 0 1.3.6 1.3 1.32v3.34h1.43v-3.34a2.75 2.75 0 0 0-2.73-2.76h-6.98a2.75 2.75 0 0 0-2.73 2.76zm2.84.11v3.23h6.76v-3.23zm-11.16 6.1h29.07a1.82 1.82 0 0 0-1.76-1.43h-25.54c-.86 0-1.59.61-1.77 1.43zm29.12 18.23v-9.59h-4.1v1.94c0 .4-.31.72-.7.72h-3.2a.71.71 0 0 1-.71-.72v-1.94h-11.74v1.94c0 .4-.32.72-.7.72h-3.2a.71.71 0 0 1-.72-.72v-1.94h-4.09v9.6h7.72c.4 0 .7.32.7.71 0 .4-.3.72-.7.72h-7.69c.16.85.9 1.5 1.78 1.5h25.54c.88 0 1.62-.65 1.78-1.5h-3.68a.71.71 0 0 1-.71-.72c0-.4.32-.72.7-.72zm-21.87-8.37v-2.87h-1.78v2.87zm16.36 0v-2.87h-1.78v2.87zm5.5-8.42h-29.15v5.77h4.09v-.93c0-.4.32-.72.71-.72h3.2c.4 0 .71.32.71.72v.93h11.74v-.93c0-.4.31-.72.7-.72h3.2c.4 0 .72.32.72.72v.93h4.09zm-9.77 11.6v3.58c0 .4-.32.72-.71.72h-1.6v1.61c0 .4-.32.72-.71.72h-3.56a.71.71 0 0 1-.71-.72v-1.61h-1.6a.71.71 0 0 1-.71-.72v-3.59c0-.4.32-.71.71-.71h1.6v-1.62c0-.4.32-.72.71-.72h3.56c.39 0 .7.33.7.72v1.62h1.6c.4 0 .72.32.72.71zm-1.42.71h-1.6a.71.71 0 0 1-.71-.72v-1.61h-2.14v1.61c0 .4-.32.72-.7.72h-1.6v2.15h1.6c.38 0 .7.32.7.72v1.61h2.14v-1.61c0-.4.31-.72.7-.72h1.6zm4.73 5.2c0 .4-.32.72-.71.72h-.08a.71.71 0 0 1-.7-.72c0-.4.31-.72.7-.72h.08c.39 0 .7.33.7.72z"/></defs><g><g transform="translate(-593 -348)"><use xlink:href="#393ea"/><use fill="#43afb3" xlink:href="#393ea"/></g></g></svg>