<svg xmlns="http://www.w3.org/2000/svg" xmlns:xlink="http://www.w3.org/1999/xlink" width="319" height="38" viewBox="0 0 319 38"><defs><path id="w45za" d="M686.27 213v-1.67h84.53V213z"/><path id="w45zb" d="M827.27 213v-1.67h84.53V213z"/><path id="w45zc" d="M659 193a19 19 0 1 1 0 38 19 19 0 0 1 0-38z"/><path id="w45zd" d="M799 193a19 19 0 1 1 0 38 19 19 0 0 1 0-38z"/><path id="w45ze" d="M940 193a19 19 0 1 1 0 38 19 19 0 0 1 0-38z"/><path id="w45zf" d="M666.86 220.42a1.1 1.1 0 0 1-.98.58h-11.23c-.9 0-1.65-.76-1.65-1.69v-9.57c0-.68.4-1.27.97-1.54v-4c0-.67.52-1.2 1.16-1.2H665c.65 0 1.17.53 1.17 1.2v14.01l.7 1.06.02.03c.17.35.17.77-.02 1.12zm-11.6-12.37h3.6c.66 0 1 .59 1.16.83l.01.03 4.83 7.34v-11.93h-9.6zm10.3 11.63l-.58-.9-6.06-9.18-.01-.03-.13-.2h-4.13c-.2 0-.36.17-.36.37v9.57c0 .2.17.37.36.37zm-5.85-5.27c0 .37-.29.67-.64.67h-.85v.86c0 .36-.29.66-.64.66a.65.65 0 0 1-.65-.66v-.86h-.85a.65.65 0 0 1-.64-.67c0-.36.29-.66.64-.66h.85v-.86c0-.37.29-.66.65-.66.35 0 .64.3.64.66v.86h.85c.35 0 .64.3.64.66zm4.29-8.28c0 .37-.3.66-.65.66h-6.56a.65.65 0 0 1-.65-.66c0-.37.3-.66.65-.66h6.56c.36 0 .65.3.65.66zm0 2.6c0 .37-.3.67-.65.67h-1.91a.65.65 0 0 1-.65-.67c0-.36.3-.66.65-.66h1.91c.36 0 .65.3.65.66z"/></defs><g><g transform="translate(-640 -193)"><use fill="#e6e6e6" xlink:href="#w45za"/><use fill="#43afb3" xlink:href="#w45za"/></g><g transform="translate(-640 -193)"><use fill="#e6e6e6" xlink:href="#w45zb"/><use fill="#b4b4b4" xlink:href="#w45zb"/></g><g transform="translate(-640 -193)"><use fill="#43afb3" xlink:href="#w45zc"/></g><g transform="translate(-640 -193)"><use fill="#43afb3" xlink:href="#w45zd"/></g><g transform="translate(-640 -193)"><use fill="#43afb3" xlink:href="#w45ze"/><use fill="#b4b4b4" xlink:href="#w45ze"/></g><g transform="translate(-640 -193)"><use xlink:href="#w45zf"/><use fill="#fff" xlink:href="#w45zf"/></g></g></svg>