<svg xmlns="http://www.w3.org/2000/svg" xmlns:xlink="http://www.w3.org/1999/xlink" width="60" height="470" viewBox="0 0 60 470"><defs><path id="44qba" d="M71 454.99h2.98V584h-2.97z"/><path id="44qbb" d="M70 662h2.98v129h-2.97z"/><path id="44qbc" d="M73.24 594a28.97 28.97 0 0 1 28.94 29c0 16.02-12.95 29-28.94 29a28.97 28.97 0 0 1-28.95-29c0-16.02 12.96-29 28.95-29z"/><path id="44qbd" d="M72.05 799A28.97 28.97 0 0 1 101 828c0 16.02-12.96 29-28.95 29a28.97 28.97 0 0 1-28.94-29c0-16.02 12.96-29 28.94-29z"/><path id="44qbe" d="M72.95 387a28.97 28.97 0 0 1 28.94 29c0 16.02-12.96 29-28.94 29A28.97 28.97 0 0 1 44 416c0-16.02 12.96-29 28.95-29z"/><path id="44qbf" d="M84.92 428.84a1.69 1.69 0 0 1-1.48.9H66.32a2.55 2.55 0 0 1-2.51-2.58v-14.61c0-1.04.6-1.94 1.47-2.35v-6.12c0-1 .8-1.82 1.77-1.82h15.03c.98 0 1.77.82 1.77 1.82v21.4l1.07 1.62.02.05c.28.53.27 1.17-.02 1.7zm-17.67-18.87h5.48c1.01 0 1.54.9 1.76 1.28l.03.03 7.36 11.2v-18.2H67.25zm15.7 17.75l-.9-1.36-9.22-14.03-.03-.04c-.09-.16-.15-.25-.2-.3h-6.28c-.3 0-.54.26-.54.56v14.6c0 .31.25.57.54.57zm-8.92-8.03a1 1 0 0 1-.98 1h-1.29v1.32a1 1 0 0 1-.98 1.01 1 1 0 0 1-.99-1v-1.32H68.5a1 1 0 0 1-.98-1.01 1 1 0 0 1 .98-1.02h1.29v-1.31a1 1 0 0 1 .99-1.01 1 1 0 0 1 .98 1v1.32h1.29a1 1 0 0 1 .98 1.02zm6.53-12.65a1 1 0 0 1-.99 1.01h-10a1 1 0 0 1-.98-1.01 1 1 0 0 1 .99-1.01h10a1 1 0 0 1 .98 1.01zm0 3.97a1 1 0 0 1-.99 1.01h-2.9a1 1 0 0 1-1-1 1 1 0 0 1 1-1.02h2.9a1 1 0 0 1 .99 1.01z"/></defs><g><g transform="translate(-43 -387)"><use fill="#e6e6e6" xlink:href="#44qba"/><use fill="#43afb3" xlink:href="#44qba"/></g><g transform="translate(-43 -387)"><use fill="#e6e6e6" xlink:href="#44qbb"/><use fill="#b4b4b4" xlink:href="#44qbb"/></g><g transform="translate(-43 -387)"><use fill="#43afb3" xlink:href="#44qbc"/></g><g transform="translate(-43 -387)"><use fill="#43afb3" xlink:href="#44qbd"/><use fill="#b4b4b4" xlink:href="#44qbd"/></g><g transform="translate(-43 -387)"><use fill="#43afb3" xlink:href="#44qbe"/></g><g transform="translate(-43 -387)"><use xlink:href="#44qbf"/><use fill="#fff" xlink:href="#44qbf"/></g></g></svg>